<?xml version="1.0" encoding="utf-8"?>
<!-- Generator: Adobe Illustrator 19.2.1, SVG Export Plug-In . SVG Version: 6.00 Build 0)  -->
<svg version="1.1" id="layer" xmlns="http://www.w3.org/2000/svg" xmlns:xlink="http://www.w3.org/1999/xlink" x="0px" y="0px"
	 viewBox="0 0 652 652" style="enable-background:new 0 0 652 652;" xml:space="preserve">
<style type="text/css">
	.st0{fill:#E4002B;}
	.st1{fill:#FFFFFF;}
	.st2{fill:#333F48;}
</style>
<path class="st0" d="M228,326.2c0,55.6-45.2,100.9-100.9,100.9c-55.6,0-100.9-45.3-100.9-100.9c0-55.6,45.2-100.8,100.9-100.8
	C182.7,225.4,228,270.6,228,326.2"/>
<path class="st1" d="M93.4,373.3c-9.7,0-17.7-7.9-17.7-17.7v-45.7c0-2,0.9-3.9,2.4-5.2l44.6-37.9c1.2-1,2.8-1.6,4.4-1.6
	c1.6,0,3.2,0.6,4.4,1.6l44.6,37.9c1.5,1.3,2.4,3.2,2.4,5.2v45.7c0,9.7-7.9,17.7-17.7,17.7L93.4,373.3L93.4,373.3z M89.3,313.1v42.6
	c0,2.2,1.8,4,4,4h67.5c2.2,0,4-1.8,4-4v-42.6L127.1,281L89.3,313.1z"/>
<g>
	<path class="st2" d="M314.7,362.2c-2.9,0.8-8.7,1.7-16.5,1.7c-16.7,0-29.2-10.3-29.2-31.1v-11.9c0-20.9,12.6-31.1,29.2-31.1
		c7.8,0,13.6,0.9,16.5,1.7c2.2,0.5,2.7,1.3,2.7,3.3v8.3c0,1.3-1,1.9-2.3,1.9c-0.1,0-0.3,0-0.4,0c-5.1-0.6-8.2-0.9-16.5-0.9
		c-6,0-12.3,3.5-12.3,16.8v11.9c0,13.3,6.3,16.8,12.3,16.8c8.3,0,11.4-0.3,16.5-0.9h0.4c1.3,0,2.3,0.6,2.3,1.9v8.3
		C317.3,360.9,316.8,361.6,314.7,362.2z"/>
	<path class="st2" d="M379.7,362.8h-10.9c-1.4,0-2.6-1.2-2.6-2.6v-2.1c-5.9,3.6-11.9,5.6-18.1,5.6c-10.6,0-22.2-4.1-22.2-21.4v-0.5
		c0-14.6,9-22.2,31.3-22.2h8.1v-5.6c0-8.3-3.7-10.4-11.3-10.4c-8.2,0-16.7,0.5-20.9,1c-0.3,0-0.5,0-0.6,0c-1.3,0-2.3-0.4-2.3-2.2
		v-8.2c0-1.4,0.8-2.3,2.4-2.7c5.1-1,12.6-2,21.4-2c18.2,0,28.2,8.1,28.2,24.5v46.1C382.3,361.6,381.2,362.8,379.7,362.8L379.7,362.8
		z M365.4,331h-8.1c-11.7,0-14.2,3.7-14.2,10.9v0.5c0,6.3,2.8,7.9,9.2,7.9c4.6,0,9.4-1.5,13.1-3.6V331z"/>
	<path class="st2" d="M419.7,363.8c-5,0-15.8-0.6-22.9-2.6c-1.5-0.4-2.4-1.4-2.4-2.9v-7.7c0-1,0.9-2,2.2-2h0.5
		c6.2,0.8,17.7,1.4,21.5,1.4c7.9,0,9.1-2.7,9.1-6.1c0-2.4-1.5-4-5.6-6.5l-17.6-10.8c-6.3-3.8-10.8-10.3-10.8-17.7
		c0-12.8,8.1-19.2,24.3-19.2c10.4,0,16.3,1.2,22.8,2.6c1.5,0.4,2.3,1.4,2.3,2.9v7.4c0,1.5-0.8,2.4-2.1,2.4c-0.3,0-0.4,0-0.5,0
		c-3.6-0.5-13.8-1.5-21.1-1.5c-6.1,0-8.8,1.4-8.8,5.4c0,2.1,1.9,3.3,5.1,5.3l16.8,10.3c10.8,6.5,12.3,12.9,12.3,19.5
		C444.8,355,436.5,363.8,419.7,363.8L419.7,363.8z"/>
	<path class="st2" d="M507.2,362.8h-10.9c-1.4,0-2.6-1.2-2.6-2.6v-2.1c-5.9,3.6-11.9,5.6-18.1,5.6c-10.6,0-22.2-4.1-22.2-21.4v-0.5
		c0-14.6,9-22.2,31.3-22.2h8.1v-5.6c0-8.3-3.7-10.4-11.3-10.4c-8.2,0-16.7,0.5-20.9,1c-0.3,0-0.5,0-0.6,0c-1.3,0-2.3-0.4-2.3-2.2
		v-8.2c0-1.4,0.8-2.3,2.4-2.7c5.1-1,12.6-2,21.4-2c18.2,0,28.2,8.1,28.2,24.5v46.1C509.8,361.6,508.6,362.8,507.2,362.8L507.2,362.8
		z M492.9,331h-8.1c-11.7,0-14.2,3.7-14.2,10.9v0.5c0,6.3,2.8,7.9,9.2,7.9c4.6,0,9.4-1.5,13.1-3.6V331z"/>
	<path class="st2" d="M537.7,362.8h-11.4c-1.4,0-2.6-1.2-2.6-2.6v-14.5c0-1.4,1.2-2.4,2.6-2.4h11.4c1.4,0,2.6,1,2.6,2.4v14.5
		C540.3,361.6,539.1,362.8,537.7,362.8z"/>
	<path class="st2" d="M569.4,280.9h-12.4c-1.4,0-2.7-1.2-2.7-2.6v-11.3c0-1.4,1.3-2.6,2.7-2.6h12.4c1.4,0,2.6,1.2,2.6,2.6v11.3
		C571.9,279.8,570.8,280.9,569.4,280.9z M569,362.8h-11.8c-1.4,0-2.6-1.3-2.6-2.7v-67c0-1.4,1.2-2.6,2.6-2.6H569
		c1.4,0,2.6,1.2,2.6,2.6v67C571.5,361.5,570.4,362.8,569,362.8z"/>
	<path class="st2" d="M623.8,362.9c-3.1,0.5-5.9,0.9-8.7,0.9c-14.5,0-20.4-3.2-20.4-20.4v-40.2l-12-1.8c-1.4-0.3-2.6-1.2-2.6-2.6
		v-5.8c0-1.4,1.2-2.6,2.6-2.6h12V280c0-1.4,1.2-2.3,2.6-2.6l11.9-2.1h0.5c1.2,0,2,0.6,2,1.9v13.2h11.5c1.4,0,2.6,1.2,2.6,2.6v7.6
		c0,1.4-1.2,2.6-2.6,2.6h-11.5v40.2c0,6.4,0.4,7.2,5,7.2h6.8c1.7,0,2.7,0.6,2.7,1.9v8.1C626.3,361.9,625.5,362.7,623.8,362.9
		L623.8,362.9z"/>
</g>
</svg>
